<svg width="25" height="25" viewBox="0 0 25 25" fill="none" xmlns="http://www.w3.org/2000/svg">
<g clip-path="url(#clip0)">
<path d="M23.4288 6.87608C23.31 6.40149 23.0681 5.96665 22.7274 5.61548C22.3868 5.26432 21.9595 5.00926 21.4888 4.87608C19.7688 4.45608 12.8888 4.45608 12.8888 4.45608C12.8888 4.45608 6.00879 4.45608 4.28879 4.91608C3.81803 5.04926 3.39076 5.30432 3.05013 5.65548C2.7095 6.00665 2.46757 6.44149 2.34879 6.91608C2.034 8.66163 1.88002 10.4324 1.88879 12.2061C1.87757 13.9931 2.03155 15.7774 2.34879 17.5361C2.47975 17.9959 2.72709 18.4142 3.06693 18.7506C3.40677 19.0869 3.82761 19.3299 4.28879 19.4561C6.00879 19.9161 12.8888 19.9161 12.8888 19.9161C12.8888 19.9161 19.7688 19.9161 21.4888 19.4561C21.9595 19.3229 22.3868 19.0678 22.7274 18.7167C23.0681 18.3655 23.31 17.9307 23.4288 17.4561C23.7411 15.7237 23.8951 13.9664 23.8888 12.2061C23.9 10.419 23.746 8.63478 23.4288 6.87608V6.87608Z" stroke="black" stroke-width="2" stroke-linecap="round" stroke-linejoin="round"/>
<path d="M10.6388 15.4761L16.3888 12.2061L10.6388 8.93608V15.4761Z" stroke="black" stroke-width="2" stroke-linecap="round" stroke-linejoin="round"/>
</g>
<defs>
<clipPath id="clip0">
<rect width="24" height="24" fill="white" transform="translate(0.888786 0.456078)"/>
</clipPath>
</defs>
</svg>
